<mxfile host="app.diagrams.net" modified="2021-12-13T16:51:54.746Z" agent="5.0 (Macintosh; Intel Mac OS X 10_15_7) AppleWebKit/537.36 (KHTML, like Gecko) Chrome/96.0.4664.93 Safari/537.36" etag="kg5tPEU8Bi4Ss_kNu_jZ" version="15.9.4" type="github">
  <diagram id="kgpKYQtTHZ0yAKxKKP6v" name="Page-1">
    <mxGraphModel dx="1441" dy="1825" grid="1" gridSize="10" guides="1" tooltips="1" connect="1" arrows="1" fold="1" page="1" pageScale="1" pageWidth="850" pageHeight="1100" math="0" shadow="0">
      <root>
        <mxCell id="0" />
        <mxCell id="1" parent="0" />
        <mxCell id="QZAKfAFqV-frmJR9LW_r-1" value="User" style="shape=umlActor;verticalLabelPosition=bottom;verticalAlign=top;html=1;outlineConnect=0;" vertex="1" parent="1">
          <mxGeometry x="70" y="220" width="30" height="60" as="geometry" />
        </mxCell>
        <mxCell id="QZAKfAFqV-frmJR9LW_r-11" style="edgeStyle=orthogonalEdgeStyle;rounded=0;orthogonalLoop=1;jettySize=auto;html=1;exitX=1;exitY=0.5;exitDx=0;exitDy=0;entryX=0;entryY=0.5;entryDx=0;entryDy=0;" edge="1" parent="1" source="QZAKfAFqV-frmJR9LW_r-2" target="QZAKfAFqV-frmJR9LW_r-4">
          <mxGeometry relative="1" as="geometry" />
        </mxCell>
        <mxCell id="QZAKfAFqV-frmJR9LW_r-2" value="RegistrationController" style="html=1;fillColor=#dae8fc;strokeColor=#6c8ebf;" vertex="1" parent="1">
          <mxGeometry x="230" y="230" width="180" height="50" as="geometry" />
        </mxCell>
        <mxCell id="QZAKfAFqV-frmJR9LW_r-3" value="&amp;nbsp;register" style="shape=flexArrow;endArrow=classic;html=1;rounded=0;width=24;endSize=12.64;" edge="1" parent="1">
          <mxGeometry width="50" height="50" relative="1" as="geometry">
            <mxPoint x="120" y="255" as="sourcePoint" />
            <mxPoint x="210" y="254.5" as="targetPoint" />
            <Array as="points" />
          </mxGeometry>
        </mxCell>
        <mxCell id="QZAKfAFqV-frmJR9LW_r-14" value="t" style="edgeLabel;html=1;align=center;verticalAlign=middle;resizable=0;points=[];" vertex="1" connectable="0" parent="QZAKfAFqV-frmJR9LW_r-3">
          <mxGeometry x="-0.6011" y="-9" relative="1" as="geometry">
            <mxPoint as="offset" />
          </mxGeometry>
        </mxCell>
        <mxCell id="QZAKfAFqV-frmJR9LW_r-8" style="edgeStyle=orthogonalEdgeStyle;rounded=0;orthogonalLoop=1;jettySize=auto;html=1;exitX=1;exitY=0.5;exitDx=0;exitDy=0;" edge="1" parent="1" source="QZAKfAFqV-frmJR9LW_r-4" target="QZAKfAFqV-frmJR9LW_r-6">
          <mxGeometry relative="1" as="geometry" />
        </mxCell>
        <mxCell id="QZAKfAFqV-frmJR9LW_r-9" style="edgeStyle=orthogonalEdgeStyle;rounded=0;orthogonalLoop=1;jettySize=auto;html=1;" edge="1" parent="1" source="QZAKfAFqV-frmJR9LW_r-4" target="QZAKfAFqV-frmJR9LW_r-7">
          <mxGeometry relative="1" as="geometry">
            <mxPoint x="580" y="230" as="targetPoint" />
          </mxGeometry>
        </mxCell>
        <mxCell id="QZAKfAFqV-frmJR9LW_r-4" value="RegistrationService" style="rounded=0;whiteSpace=wrap;html=1;" vertex="1" parent="1">
          <mxGeometry x="500" y="80" width="140" height="60" as="geometry" />
        </mxCell>
        <mxCell id="QZAKfAFqV-frmJR9LW_r-6" value="UserService" style="rounded=0;whiteSpace=wrap;html=1;" vertex="1" parent="1">
          <mxGeometry x="770" y="-30" width="120" height="60" as="geometry" />
        </mxCell>
        <mxCell id="QZAKfAFqV-frmJR9LW_r-7" value="EmailService" style="rounded=0;whiteSpace=wrap;html=1;" vertex="1" parent="1">
          <mxGeometry x="700" y="200" width="120" height="60" as="geometry" />
        </mxCell>
        <mxCell id="QZAKfAFqV-frmJR9LW_r-12" value="Create a user" style="text;html=1;resizable=0;autosize=1;align=center;verticalAlign=middle;points=[];fillColor=none;strokeColor=none;rounded=0;" vertex="1" parent="1">
          <mxGeometry x="850" y="60" width="90" height="20" as="geometry" />
        </mxCell>
        <mxCell id="QZAKfAFqV-frmJR9LW_r-13" value="Send a validation token Email to user to confirm" style="text;html=1;resizable=0;autosize=1;align=center;verticalAlign=middle;points=[];fillColor=none;strokeColor=none;rounded=0;" vertex="1" parent="1">
          <mxGeometry x="460" y="350" width="270" height="20" as="geometry" />
        </mxCell>
      </root>
    </mxGraphModel>
  </diagram>
</mxfile>
